# xmcd
#
# Track frame offsets: 
#        182
#        29675
#        69522
#        94182
#        141392
#        170905
#        199827
#        216707
#        227935
#        261722
#        298170
#
# Disc length: 4342 seconds
#
# Revision: 0
# Processed by: cddbd v1.4PL0 Copyright (c) Steve Scherf et al.
# Submitted via: ExactAudioCopy v0.90a11
#
DISCID=c610f40b
DTITLE=Robben Ford - Anthology The Early Years - (Disk 2 of 2)
DYEAR=1900
DGENRE=
TTITLE0=Oh Gee
TTITLE1=You Don"t Know What Love Is
TTITLE2=Everyday I Have the Blues
TTITLE3=It's My Own Fault
TTITLE4=Ladies Choice
TTITLE5=Hawk's Theme
TTITLE6=S-K Blues
TTITLE7=Low Ride
TTITLE8=Softly Rolling
TTITLE9=Stella and Frenchie
TTITLE10=Goin" Down Slow
EXTD=
EXTT0=
EXTT1=
EXTT2=
EXTT3=
EXTT4=
EXTT5=
EXTT6=
EXTT7=
EXTT8=
EXTT9=
EXTT10=
PLAYORDER=
